<svg aria-roledescription="flowchart-v2" role="graphics-document document" viewBox="-8 -8 690.0159912109375 600.772705078125" style="max-width: 690.016px; background-color: transparent;" xmlns:xlink="http://www.w3.org/1999/xlink" xmlns="http://www.w3.org/2000/svg" width="100%" id="my-svg"><style>#my-svg{font-family:"trebuchet ms",verdana,arial,sans-serif;font-size:16px;fill:#333;}#my-svg .error-icon{fill:#552222;}#my-svg .error-text{fill:#552222;stroke:#552222;}#my-svg .edge-thickness-normal{stroke-width:2px;}#my-svg .edge-thickness-thick{stroke-width:3.5px;}#my-svg .edge-pattern-solid{stroke-dasharray:0;}#my-svg .edge-pattern-dashed{stroke-dasharray:3;}#my-svg .edge-pattern-dotted{stroke-dasharray:2;}#my-svg .marker{fill:#333333;stroke:#333333;}#my-svg .marker.cross{stroke:#333333;}#my-svg svg{font-family:"trebuchet ms",verdana,arial,sans-serif;font-size:16px;}#my-svg .label{font-family:"trebuchet ms",verdana,arial,sans-serif;color:#333;}#my-svg .cluster-label text{fill:#333;}#my-svg .cluster-label span,#my-svg p{color:#333;}#my-svg .label text,#my-svg span,#my-svg p{fill:#333;color:#333;}#my-svg .node rect,#my-svg .node circle,#my-svg .node ellipse,#my-svg .node polygon,#my-svg .node path{fill:#ECECFF;stroke:#9370DB;stroke-width:1px;}#my-svg .flowchart-label text{text-anchor:middle;}#my-svg .node .katex path{fill:#000;stroke:#000;stroke-width:1px;}#my-svg .node .label{text-align:center;}#my-svg .node.clickable{cursor:pointer;}#my-svg .arrowheadPath{fill:#333333;}#my-svg .edgePath .path{stroke:#333333;stroke-width:2.0px;}#my-svg .flowchart-link{stroke:#333333;fill:none;}#my-svg .edgeLabel{background-color:#e8e8e8;text-align:center;}#my-svg .edgeLabel rect{opacity:0.5;background-color:#e8e8e8;fill:#e8e8e8;}#my-svg .labelBkg{background-color:rgba(232, 232, 232, 0.5);}#my-svg .cluster rect{fill:#ffffde;stroke:#aaaa33;stroke-width:1px;}#my-svg .cluster text{fill:#333;}#my-svg .cluster span,#my-svg p{color:#333;}#my-svg div.mermaidTooltip{position:absolute;text-align:center;max-width:200px;padding:2px;font-family:"trebuchet ms",verdana,arial,sans-serif;font-size:12px;background:hsl(80, 100%, 96.2745098039%);border:1px solid #aaaa33;border-radius:2px;pointer-events:none;z-index:100;}#my-svg .flowchartTitleText{text-anchor:middle;font-size:18px;fill:#333;}#my-svg :root{--mermaid-font-family:"trebuchet ms",verdana,arial,sans-serif;}</style><g><marker orient="auto" markerHeight="12" markerWidth="12" markerUnits="userSpaceOnUse" refY="5" refX="6" viewBox="0 0 10 10" class="marker flowchart" id="my-svg_flowchart-pointEnd"><path style="stroke-width: 1; stroke-dasharray: 1, 0;" class="arrowMarkerPath" d="M 0 0 L 10 5 L 0 10 z"/></marker><marker orient="auto" markerHeight="12" markerWidth="12" markerUnits="userSpaceOnUse" refY="5" refX="4.5" viewBox="0 0 10 10" class="marker flowchart" id="my-svg_flowchart-pointStart"><path style="stroke-width: 1; stroke-dasharray: 1, 0;" class="arrowMarkerPath" d="M 0 5 L 10 10 L 10 0 z"/></marker><marker orient="auto" markerHeight="11" markerWidth="11" markerUnits="userSpaceOnUse" refY="5" refX="11" viewBox="0 0 10 10" class="marker flowchart" id="my-svg_flowchart-circleEnd"><circle style="stroke-width: 1; stroke-dasharray: 1, 0;" class="arrowMarkerPath" r="5" cy="5" cx="5"/></marker><marker orient="auto" markerHeight="11" markerWidth="11" markerUnits="userSpaceOnUse" refY="5" refX="-1" viewBox="0 0 10 10" class="marker flowchart" id="my-svg_flowchart-circleStart"><circle style="stroke-width: 1; stroke-dasharray: 1, 0;" class="arrowMarkerPath" r="5" cy="5" cx="5"/></marker><marker orient="auto" markerHeight="11" markerWidth="11" markerUnits="userSpaceOnUse" refY="5.2" refX="12" viewBox="0 0 11 11" class="marker cross flowchart" id="my-svg_flowchart-crossEnd"><path style="stroke-width: 2; stroke-dasharray: 1, 0;" class="arrowMarkerPath" d="M 1,1 l 9,9 M 10,1 l -9,9"/></marker><marker orient="auto" markerHeight="11" markerWidth="11" markerUnits="userSpaceOnUse" refY="5.2" refX="-1" viewBox="0 0 11 11" class="marker cross flowchart" id="my-svg_flowchart-crossStart"><path style="stroke-width: 2; stroke-dasharray: 1, 0;" class="arrowMarkerPath" d="M 1,1 l 9,9 M 10,1 l -9,9"/></marker><g class="root"><g class="clusters"/><g class="edgePaths"><path marker-end="url(#my-svg_flowchart-pointEnd)" style="fill:none;" class="edge-thickness-normal edge-pattern-solid flowchart-link LS-FE LE-API1" id="L-FE-API1-0" d="M121.278,60L112.618,64.167C103.958,68.333,86.637,76.667,77.977,84.117C69.316,91.567,69.316,98.133,69.316,101.417L69.316,104.7"/><path marker-end="url(#my-svg_flowchart-pointEnd)" style="fill:none;" class="edge-thickness-normal edge-pattern-solid flowchart-link LS-API1 LE-DB1" id="L-API1-DB1-0" d="M69.316,147.5L69.316,151.667C69.316,155.833,69.316,164.167,69.316,171.617C69.316,179.067,69.316,185.633,69.316,188.917L69.316,192.2"/><path marker-end="url(#my-svg_flowchart-pointEnd)" style="fill:none;" class="edge-thickness-normal edge-pattern-solid flowchart-link LS-FE LE-API3" id="L-FE-API3-0" d="M178.178,60L177.421,64.167C176.663,68.333,175.148,76.667,174.39,88.125C173.633,99.583,173.633,114.167,173.633,128.75C173.633,143.333,173.633,157.917,173.633,175.199C173.633,192.481,173.633,212.462,173.633,232.443C173.633,252.424,173.633,272.405,173.633,289.688C173.633,306.97,173.633,321.553,173.633,336.136C173.633,350.72,173.633,365.303,173.633,375.878C173.633,386.453,173.633,393.02,173.633,396.303L173.633,399.586"/><path marker-end="url(#my-svg_flowchart-pointEnd)" style="fill:none;" class="edge-thickness-normal edge-pattern-solid flowchart-link LS-API3 LE-DB2" id="L-API3-DB2-0" d="M173.633,442.386L173.633,446.553C173.633,450.72,173.633,459.053,223.515,473.309C273.398,487.565,373.163,507.743,423.046,517.832L472.928,527.922"/><path marker-end="url(#my-svg_flowchart-pointEnd)" style="fill:none;" class="edge-thickness-normal edge-pattern-solid flowchart-link LS-FE LE-SSE" id="L-FE-SSE-0" d="M242.131,60L250.255,64.167C258.38,68.333,274.629,76.667,282.754,88.125C290.879,99.583,290.879,114.167,290.879,128.75C290.879,143.333,290.879,157.917,290.879,175.199C290.879,192.481,290.879,212.462,290.879,232.443C290.879,252.424,290.879,272.405,290.879,289.688C290.879,306.97,290.879,321.553,290.879,336.136C290.879,350.72,290.879,365.303,296.978,376.302C303.076,387.302,315.273,394.717,321.372,398.425L327.471,402.133"/><path marker-end="url(#my-svg_flowchart-pointEnd)" style="fill:none;" class="edge-thickness-normal edge-pattern-solid flowchart-link LS-FE LE-API2" id="L-FE-API2-0" d="M255.133,41.499L300.215,48.749C345.296,55.999,435.46,70.5,480.541,81.033C525.623,91.567,525.623,98.133,525.623,101.417L525.623,104.7"/><path marker-end="url(#my-svg_flowchart-pointEnd)" style="fill:none;" class="edge-thickness-normal edge-pattern-solid flowchart-link LS-API2 LE-DB2" id="L-API2-DB2-0" d="M500.812,147.5L495.298,151.667C489.785,155.833,478.758,164.167,473.244,178.324C467.73,192.481,467.73,212.462,467.73,232.443C467.73,252.424,467.73,272.405,467.73,289.688C467.73,306.97,467.73,321.553,467.73,336.136C467.73,350.72,467.73,365.303,467.73,379.886C467.73,394.47,467.73,409.053,467.73,423.636C467.73,438.22,467.73,452.803,470.614,464.235C473.497,475.666,479.264,483.946,482.147,488.085L485.031,492.225"/><path marker-end="url(#my-svg_flowchart-pointEnd)" style="fill:none;" class="edge-thickness-normal edge-pattern-solid flowchart-link LS-API2 LE-QUEUE" id="L-API2-QUEUE-0" d="M550.434,147.5L555.948,151.667C561.461,155.833,572.488,164.167,578.002,174.316C583.516,184.464,583.516,196.429,583.516,202.411L583.516,208.393"/><path marker-end="url(#my-svg_flowchart-pointEnd)" style="fill:none;" class="edge-thickness-normal edge-pattern-solid flowchart-link LS-QUEUE LE-WORKER" id="L-QUEUE-WORKER-0" d="M583.516,251.193L583.516,258.059C583.516,264.924,583.516,278.655,583.516,288.804C583.516,298.953,583.516,305.52,583.516,308.803L583.516,312.086"/><path marker-end="url(#my-svg_flowchart-pointEnd)" style="fill:none;" class="edge-thickness-normal edge-pattern-solid flowchart-link LS-WORKER LE-ENGINE" id="L-WORKER-ENGINE-0" d="M583.516,354.886L583.516,359.053C583.516,363.22,583.516,371.553,583.516,379.003C583.516,386.453,583.516,393.02,583.516,396.303L583.516,399.586"/><path marker-end="url(#my-svg_flowchart-pointEnd)" style="fill:none;" class="edge-thickness-normal edge-pattern-solid flowchart-link LS-ENGINE LE-DB2" id="L-ENGINE-DB2-0" d="M583.516,442.386L583.516,446.553C583.516,450.72,583.516,459.053,580.632,467.36C577.749,475.666,571.982,483.946,569.099,488.085L566.215,492.225"/><path marker-end="url(#my-svg_flowchart-pointEnd)" style="fill:none;" class="edge-thickness-normal edge-pattern-solid flowchart-link LS-WORKER LE-DB2" id="L-WORKER-DB2-0" d="M622.301,354.886L630.92,359.053C639.539,363.22,656.778,371.553,665.397,383.011C674.016,394.47,674.016,409.053,674.016,423.636C674.016,438.22,674.016,452.803,657.997,467.78C641.978,482.757,609.94,498.128,593.921,505.813L577.902,513.498"/><path marker-end="url(#my-svg_flowchart-pointEnd)" style="fill:none;" class="edge-thickness-normal edge-pattern-solid flowchart-link LS-WORKER LE-SSE" id="L-WORKER-SSE-0" d="M516.246,353.91L499.86,358.239C483.473,362.569,450.701,371.227,429.759,379.174C408.818,387.121,399.709,394.356,395.154,397.973L390.599,401.59"/></g><g class="edgeLabels"><g class="edgeLabel"><g transform="translate(0, 0)" class="label"><foreignObject height="0" width="0"><div style="display: inline-block; white-space: nowrap;" xmlns="http://www.w3.org/1999/xhtml"><span class="edgeLabel"></span></div></foreignObject></g></g><g class="edgeLabel"><g transform="translate(0, 0)" class="label"><foreignObject height="0" width="0"><div style="display: inline-block; white-space: nowrap;" xmlns="http://www.w3.org/1999/xhtml"><span class="edgeLabel"></span></div></foreignObject></g></g><g class="edgeLabel"><g transform="translate(0, 0)" class="label"><foreignObject height="0" width="0"><div style="display: inline-block; white-space: nowrap;" xmlns="http://www.w3.org/1999/xhtml"><span class="edgeLabel"></span></div></foreignObject></g></g><g class="edgeLabel"><g transform="translate(0, 0)" class="label"><foreignObject height="0" width="0"><div style="display: inline-block; white-space: nowrap;" xmlns="http://www.w3.org/1999/xhtml"><span class="edgeLabel"></span></div></foreignObject></g></g><g class="edgeLabel"><g transform="translate(0, 0)" class="label"><foreignObject height="0" width="0"><div style="display: inline-block; white-space: nowrap;" xmlns="http://www.w3.org/1999/xhtml"><span class="edgeLabel"></span></div></foreignObject></g></g><g class="edgeLabel"><g transform="translate(0, 0)" class="label"><foreignObject height="0" width="0"><div style="display: inline-block; white-space: nowrap;" xmlns="http://www.w3.org/1999/xhtml"><span class="edgeLabel"></span></div></foreignObject></g></g><g class="edgeLabel"><g transform="translate(0, 0)" class="label"><foreignObject height="0" width="0"><div style="display: inline-block; white-space: nowrap;" xmlns="http://www.w3.org/1999/xhtml"><span class="edgeLabel"></span></div></foreignObject></g></g><g class="edgeLabel"><g transform="translate(0, 0)" class="label"><foreignObject height="0" width="0"><div style="display: inline-block; white-space: nowrap;" xmlns="http://www.w3.org/1999/xhtml"><span class="edgeLabel"></span></div></foreignObject></g></g><g class="edgeLabel"><g transform="translate(0, 0)" class="label"><foreignObject height="0" width="0"><div style="display: inline-block; white-space: nowrap;" xmlns="http://www.w3.org/1999/xhtml"><span class="edgeLabel"></span></div></foreignObject></g></g><g class="edgeLabel"><g transform="translate(0, 0)" class="label"><foreignObject height="0" width="0"><div style="display: inline-block; white-space: nowrap;" xmlns="http://www.w3.org/1999/xhtml"><span class="edgeLabel"></span></div></foreignObject></g></g><g class="edgeLabel"><g transform="translate(0, 0)" class="label"><foreignObject height="0" width="0"><div style="display: inline-block; white-space: nowrap;" xmlns="http://www.w3.org/1999/xhtml"><span class="edgeLabel"></span></div></foreignObject></g></g><g class="edgeLabel"><g transform="translate(0, 0)" class="label"><foreignObject height="0" width="0"><div style="display: inline-block; white-space: nowrap;" xmlns="http://www.w3.org/1999/xhtml"><span class="edgeLabel"></span></div></foreignObject></g></g><g class="edgeLabel"><g transform="translate(0, 0)" class="label"><foreignObject height="0" width="0"><div style="display: inline-block; white-space: nowrap;" xmlns="http://www.w3.org/1999/xhtml"><span class="edgeLabel"></span></div></foreignObject></g></g></g><g class="nodes"><g transform="translate(183.6328125, 30)" data-id="FE" data-node="true" id="flowchart-FE-0" class="node default default flowchart-label"><rect height="60" width="143" y="-30" x="-71.5" ry="0" rx="0" style="" class="basic label-container"/><g transform="translate(-64, -22.5)" style="" class="label"><rect/><foreignObject height="45" width="128"><div style="display: inline-block; white-space: nowrap;" xmlns="http://www.w3.org/1999/xhtml"><span class="nodeLabel">Web 前端<br />批次更新帳單頁面</span></div></foreignObject></g></g><g transform="translate(69.31640625, 128.75)" data-id="API1" data-node="true" id="flowchart-API1-1" class="node default default flowchart-label"><rect height="37.5" width="138.6328125" y="-18.75" x="-69.31640625" ry="0" rx="0" style="" class="basic label-container"/><g transform="translate(-61.81640625, -11.25)" style="" class="label"><rect/><foreignObject height="22.5" width="123.6328125"><div style="display: inline-block; white-space: nowrap;" xmlns="http://www.w3.org/1999/xhtml"><span class="nodeLabel">訂單單號查詢 API</span></div></foreignObject></g></g><g transform="translate(525.623046875, 128.75)" data-id="API2" data-node="true" id="flowchart-API2-2" class="node default default flowchart-label"><rect height="37.5" width="138.6328125" y="-18.75" x="-69.31640625" ry="0" rx="0" style="" class="basic label-container"/><g transform="translate(-61.81640625, -11.25)" style="" class="label"><rect/><foreignObject height="22.5" width="123.6328125"><div style="display: inline-block; white-space: nowrap;" xmlns="http://www.w3.org/1999/xhtml"><span class="nodeLabel">批次帳單更新 API</span></div></foreignObject></g></g><g transform="translate(173.6328125, 423.63636779785156)" data-id="API3" data-node="true" id="flowchart-API3-3" class="node default default flowchart-label"><rect height="37.5" width="138.6328125" y="-18.75" x="-69.31640625" ry="0" rx="0" style="" class="basic label-container"/><g transform="translate(-61.81640625, -11.25)" style="" class="label"><rect/><foreignObject height="22.5" width="123.6328125"><div style="display: inline-block; white-space: nowrap;" xmlns="http://www.w3.org/1999/xhtml"><span class="nodeLabel">更新狀態查詢 API</span></div></foreignObject></g></g><g transform="translate(362.83984375, 423.63636779785156)" data-id="SSE" data-node="true" id="flowchart-SSE-4" class="node default default flowchart-label"><rect height="37.5" width="139.78125" y="-18.75" x="-69.890625" ry="0" rx="0" style="" class="basic label-container"/><g transform="translate(-62.390625, -11.25)" style="" class="label"><rect/><foreignObject height="22.5" width="124.78125"><div style="display: inline-block; white-space: nowrap;" xmlns="http://www.w3.org/1999/xhtml"><span class="nodeLabel">SSE 訂單狀態推播</span></div></foreignObject></g></g><g transform="translate(69.31640625, 232.44318389892578)" data-id="DB1" data-node="true" id="flowchart-DB1-5" class="node default default flowchart-label"><path transform="translate(-47.5,-34.94318181818182)" d="M 0,10.795454545454545 a 47.5,10.795454545454545 0,0,0 95 0 a 47.5,10.795454545454545 0,0,0 -95 0 l 0,48.29545454545455 a 47.5,10.795454545454545 0,0,0 95 0 l 0,-48.29545454545455" style=""/><g transform="translate(-40, -11.25)" style="" class="label"><rect/><foreignObject height="22.5" width="80"><div style="display: inline-block; white-space: nowrap;" xmlns="http://www.w3.org/1999/xhtml"><span class="nodeLabel">訂單資料庫</span></div></foreignObject></g></g><g transform="translate(525.623046875, 538.5795516967773)" data-id="DB2" data-node="true" id="flowchart-DB2-6" class="node default default flowchart-label"><path transform="translate(-47.5,-46.19318181818182)" d="M 0,10.795454545454545 a 47.5,10.795454545454545 0,0,0 95 0 a 47.5,10.795454545454545 0,0,0 -95 0 l 0,70.79545454545455 a 47.5,10.795454545454545 0,0,0 95 0 l 0,-70.79545454545455" style=""/><g transform="translate(-40, -22.5)" style="" class="label"><rect/><foreignObject height="45" width="80"><div style="display: inline-block; white-space: nowrap;" xmlns="http://www.w3.org/1999/xhtml"><span class="nodeLabel">帳單資料庫<br />含更新狀態</span></div></foreignObject></g></g><g transform="translate(583.515625, 232.44318389892578)" data-id="QUEUE" data-node="true" id="flowchart-QUEUE-7" class="node default default flowchart-label"><rect height="37.5" width="161.5703125" y="-18.75" x="-80.78515625" ry="0" rx="0" style="" class="basic label-container"/><g transform="translate(-73.28515625, -11.25)" style="" class="label"><rect/><foreignObject height="22.5" width="146.5703125"><div style="display: inline-block; white-space: nowrap;" xmlns="http://www.w3.org/1999/xhtml"><span class="nodeLabel">更新任務佇列 Queue</span></div></foreignObject></g></g><g transform="translate(583.515625, 336.13636779785156)" data-id="WORKER" data-node="true" id="flowchart-WORKER-8" class="node default default flowchart-label"><rect height="37.5" width="134.5390625" y="-18.75" x="-67.26953125" ry="0" rx="0" style="" class="basic label-container"/><g transform="translate(-59.76953125, -11.25)" style="" class="label"><rect/><foreignObject height="22.5" width="119.5390625"><div style="display: inline-block; white-space: nowrap;" xmlns="http://www.w3.org/1999/xhtml"><span class="nodeLabel">帳單更新 Worker</span></div></foreignObject></g></g><g transform="translate(583.515625, 423.63636779785156)" data-id="ENGINE" data-node="true" id="flowchart-ENGINE-9" class="node default default flowchart-label"><rect height="37.5" width="111" y="-18.75" x="-55.5" ry="0" rx="0" style="" class="basic label-container"/><g transform="translate(-48, -11.25)" style="" class="label"><rect/><foreignObject height="22.5" width="96"><div style="display: inline-block; white-space: nowrap;" xmlns="http://www.w3.org/1999/xhtml"><span class="nodeLabel">帳單計算引擎</span></div></foreignObject></g></g></g></g></g></svg>